<?xml version="1.0" encoding="iso-8859-1"?>
<!-- Generator: Adobe Illustrator 19.0.0, SVG Export Plug-In . SVG Version: 6.00 Build 0)  -->
<svg version="1.1" id="Layer_1" xmlns="http://www.w3.org/2000/svg" xmlns:xlink="http://www.w3.org/1999/xlink" x="0px" y="0px"
	 viewBox="0 0 352.457 352.457" style="enable-background:new 0 0 352.457 352.457;" xml:space="preserve">
<g>
	<g>
		<path d="M313.023,72.418L241.895,1.29c-0.43-0.774-1.29-1.29-2.409-1.29H52.336c-7.569,0-13.847,6.193-13.847,13.847V338.61
			c0,7.569,6.193,13.847,13.847,13.847h247.786c7.311,0,13.503-6.192,13.847-13.847V74.482
			C313.797,73.536,313.539,72.934,313.023,72.418z M308.292,338.523h-0.085v0.001c0,4.472-3.698,8.171-8.171,8.171H52.25
			c-4.472,0-8.171-3.698-8.171-8.171V13.761c0-4.472,3.698-8.171,8.171-8.171h184.399v50.486c0,11.525,9.547,21.158,21.157,21.158
			h25.63c1.376,0,2.838-1.118,2.838-2.838s-1.118-2.838-2.838-2.838h-25.63c-8.429,0-15.482-7.052-15.482-15.482V9.546
			l65.967,65.967V338.523z"/>
	</g>
</g>
<g>
	<g>
		<path d="M283.35,118.088H68.849c-1.72,0-2.838,1.118-2.838,2.838v165.22c0,1.72,1.118,2.838,2.838,2.838H283.35
			c1.376,0,2.838-1.118,2.838-2.838v-165.22C286.188,119.206,285.071,118.088,283.35,118.088z M170.595,123.678h52.121v22.018
			h-52.121V123.678z M71.343,123.678h22.018v22.018H71.343V123.678z M71.343,151.286h22.018v22.018H71.343V151.286z M71.343,178.895
			h22.018v22.018H71.343V178.895z M71.343,206.589h22.018v21.674H71.343V206.589z M93.447,283.221H71.429v-21.674h22.018V283.221z
			 M93.447,255.957H71.429v-22.018h22.018V255.957z M165.005,283.221H99.037v-21.674h65.967V283.221z M165.005,255.957H99.037
			v-22.018h65.967V255.957z M165.005,228.263H99.037v-21.674h65.967V228.263z M165.005,200.913H99.037v-22.018h65.967V200.913z
			 M165.005,173.39H99.037v-22.018h65.967V173.39z M165.005,145.696H99.037v-22.018h65.967V145.696z M222.716,283.221h-52.121
			v-21.674h52.121V283.221z M222.716,255.957h-52.121v-22.018h52.121V255.957z M222.716,228.263h-52.121v-21.674h52.121V228.263z
			 M222.716,200.999h-52.121v-22.018h52.121V200.999z M222.801,173.304h-52.121v-22.018h52.121V173.304z M280.254,283.307h-51.862
			v-21.674h51.862V283.307z M280.254,255.957h-51.862v-22.018h51.862V255.957z M280.254,228.263h-51.862v-21.674h51.862V228.263z
			 M280.254,200.913h-51.862v-22.018h51.862V200.913z M280.254,173.304h-51.862v-22.018h51.862V173.304z M280.254,145.696h-51.863
			v-22.018h51.863V145.696z"/>
	</g>
</g>
<g>
</g>
<g>
</g>
<g>
</g>
<g>
</g>
<g>
</g>
<g>
</g>
<g>
</g>
<g>
</g>
<g>
</g>
<g>
</g>
<g>
</g>
<g>
</g>
<g>
</g>
<g>
</g>
<g>
</g>
</svg>
