<?xml version="1.0" encoding="iso-8859-1"?>
<!-- Generator: Adobe Illustrator 18.1.1, SVG Export Plug-In . SVG Version: 6.00 Build 0)  -->
<svg version="1.1" id="Capa_1" xmlns="http://www.w3.org/2000/svg" xmlns:xlink="http://www.w3.org/1999/xlink" x="0px" y="0px"
	 viewBox="0 0 331.161 331.161" style="enable-background:new 0 0 331.161 331.161;" xml:space="preserve">
<g>
	<g>
		<path style="fill:#010002;" d="M165.578,129.779c-19.744,0-35.801,16.057-35.801,35.801s16.057,35.801,35.801,35.801
			s35.801-16.057,35.801-35.801S185.322,129.779,165.578,129.779z"/>
		<path style="fill:#010002;" d="M331.158,199.89v-68.619H298.46c-3.192-12.429-8.109-24.291-14.661-35.378l23.134-23.134
			l-48.529-48.517l-23.134,23.128c-11.075-6.552-22.949-11.468-35.384-14.667V0h-68.619v32.704
			c-12.429,3.198-24.297,8.115-35.378,14.667L72.757,24.237L24.234,72.76l23.134,23.134c-6.552,11.08-11.468,22.949-14.667,35.378
			H0.003v68.619h32.698c3.198,12.435,8.115,24.297,14.667,35.384L24.24,258.407l48.523,48.517l23.128-23.122
			c11.086,6.552,22.949,11.468,35.378,14.661v32.698h68.619v-32.698c12.429-3.192,24.285-8.109,35.384-14.661l23.134,23.122
			l48.517-48.517l-23.122-23.134c6.552-11.08,11.468-22.955,14.661-35.384H331.158z M165.578,213.316
			c-26.32,0-47.735-21.415-47.735-47.735s21.415-47.735,47.735-47.735s47.735,21.415,47.735,47.735S191.898,213.316,165.578,213.316
			z"/>
	</g>
</g>
<g>
</g>
<g>
</g>
<g>
</g>
<g>
</g>
<g>
</g>
<g>
</g>
<g>
</g>
<g>
</g>
<g>
</g>
<g>
</g>
<g>
</g>
<g>
</g>
<g>
</g>
<g>
</g>
<g>
</g>
</svg>
