<svg height="512" viewBox="0 0 512 512" width="512" xmlns="http://www.w3.org/2000/svg"><g id="Fill_out_line" data-name="Fill out line"><rect fill="#8acce7" height="280" rx="32" width="400" x="88" y="88"/><path d="m88 320h400a0 0 0 0 1 0 0v16a32 32 0 0 1 -32 32h-336a32 32 0 0 1 -32-32v-16a0 0 0 0 1 0 0z" fill="#379ec3"/><path d="m128 120h320a8 8 0 0 1 8 8v192a0 0 0 0 1 0 0h-336a0 0 0 0 1 0 0v-192a8 8 0 0 1 8-8z" fill="#a2c32a"/><path d="m256 368v32a32 32 0 0 1 -32 32h128a32 32 0 0 1 -32-32v-32z" fill="#8acce7"/><path d="m352 208h-32v32h-64v-32h-32l4.37-26.21a31.98862 31.98862 0 0 1 25.28991-26.12012l18.34009-3.66988a16 16 0 1 0 32 0l18.34009 3.66992a31.98862 31.98862 0 0 1 25.28991 26.12008z" fill="#8acce7"/><path d="m384 176v48l40-24z" fill="#eebe33"/><path d="m192 224v-48l-40 24z" fill="#eebe33"/><path d="m224 264h48v32h-48z" fill="#e44042"/><path d="m304 264h48v32h-48z" fill="#349966"/><path d="m24 272h176v160h-176z" fill="#eedc9a"/><path d="m152 272h48v160h-48z" fill="#eebe33"/><path d="m456 80h-336a40.04018 40.04018 0 0 0 -40 40v88h16v-88a24.03189 24.03189 0 0 1 24-24h336a24.03189 24.03189 0 0 1 24 24v192h-16v-184a16.02116 16.02116 0 0 0 -16-16h-320a16.02116 16.02116 0 0 0 -16 16v80h16v-80h320v184h-224v16h256v8a24.03189 24.03189 0 0 1 -24 24h-232v16h24v24a24.03189 24.03189 0 0 1 -24 24 8 8 0 0 0 0 16h128a8 8 0 0 0 0-16 24.03189 24.03189 0 0 1 -24-24v-24h128a40.04018 40.04018 0 0 0 40-40v-216a40.04018 40.04018 0 0 0 -40-40zm-200.02 344a39.80743 39.80743 0 0 0 8.02-24v-24h48v24a39.80743 39.80743 0 0 0 8.02 24z"/><circle cx="288" cy="344" r="8"/><path d="m359.89 206.67993-4.37-26.21a40.20911 40.20911 0 0 0 -31.61011-32.6499l-18.33984-3.66016a7.99194 7.99194 0 0 0 -9.57005 7.84013 8 8 0 0 1 -16 0 7.99194 7.99194 0 0 0 -9.57007-7.84009l-18.33984 3.66016a40.20911 40.20911 0 0 0 -31.61009 32.64993l-4.37 26.21a8.00665 8.00665 0 0 0 7.89 9.32h24v24a7.9979 7.9979 0 0 0 8 8h64a7.9979 7.9979 0 0 0 8-8v-24h24a8.00665 8.00665 0 0 0 7.89-9.32007zm-31.89-6.67993v-8h-16v40h-48v-40h-16v8h-14.56006l2.82006-16.8999a24.13987 24.13987 0 0 1 18.97-19.5901l10.67993-2.13013a23.99843 23.99843 0 0 0 44.18018 0l10.67989 2.13013a24.13987 24.13987 0 0 1 18.97 19.59009l2.82006 16.89991z"/><path d="m384 232a7.9995 7.9995 0 0 1 -8-8v-48a8.00029 8.00029 0 0 1 12.11621-6.86035l40 24a8.001 8.001 0 0 1 0 13.7207l-40 24a8.00059 8.00059 0 0 1 -4.11621 1.13965zm8-41.87012v19.74024l16.45068-9.87012z"/><path d="m192 232a8.00189 8.00189 0 0 1 -4.11621-1.13965l-40-24a8.001 8.001 0 0 1 0-13.7207l40-24a8.00029 8.00029 0 0 1 12.11621 6.86035v48a7.9995 7.9995 0 0 1 -8 8zm-24.45068-32 16.45068 9.87012v-19.74024z"/><path d="m272 304h-48a8.00008 8.00008 0 0 1 -8-8v-32a8.00008 8.00008 0 0 1 8-8h48a8.00008 8.00008 0 0 1 8 8v32a8.00008 8.00008 0 0 1 -8 8zm-40-16h32v-16h-32z"/><path d="m352 304h-48a8.00008 8.00008 0 0 1 -8-8v-32a8.00008 8.00008 0 0 1 8-8h48a8.00008 8.00008 0 0 1 8 8v32a8.00008 8.00008 0 0 1 -8 8zm-40-16h32v-16h-32z"/><path d="m200 264h-32v-8a31.99022 31.99022 0 0 0 -56-21.1499 31.99022 31.99022 0 0 0 -56 21.1499v8h-32a7.9979 7.9979 0 0 0 -8 8v160a7.9979 7.9979 0 0 0 8 8h176a7.9979 7.9979 0 0 0 8-8v-160a7.9979 7.9979 0 0 0 -8-8zm-80-8a16 16 0 0 1 32 0v8h-32zm-48 0a16 16 0 0 1 32 0v8h-32zm-40 24h24v16h16v-16h32v16h16v-16h24v144h-112zm160 144h-32v-144h32z"/></g></svg>